<?xml version="1.0" encoding="utf-8"?>
<!-- Generator: Adobe Illustrator 16.0.0, SVG Export Plug-In . SVG Version: 6.00 Build 0)  -->
<!DOCTYPE svg PUBLIC "-//W3C//DTD SVG 1.1//EN" "http://www.w3.org/Graphics/SVG/1.1/DTD/svg11.dtd">
<svg version="1.1" id="Layer_1" xmlns="http://www.w3.org/2000/svg" xmlns:xlink="http://www.w3.org/1999/xlink" x="0px" y="0px"
	 width="157px" height="156.617px" viewBox="0 -2.5 157 156.617" enable-background="new 0 -2.5 157 156.617" xml:space="preserve">
<g>
	<g>
		<path fill="#647248" d="M25.531,110.723l-2.326-3.871l-2.173,0.168l-0.566-0.943l8.945-0.693l0.33,0.551l-4.812,7.572
			l-0.567-0.943L25.531,110.723z M26.091,109.852l2.062-3.246l0.165-0.193l-0.248,0.057l-3.833,0.299L26.091,109.852z"/>
		<path fill="#647248" d="M38.663,117.303l-5.929,5.404l-0.633-0.693l1.382-7.432l0.078-0.289l-0.23,0.24l-4.396,4.008l-0.671-0.736
			l5.928-5.404l0.625,0.686l-1.349,7.418l-0.094,0.287l0.229-0.24l4.379-3.992L38.663,117.303z"/>
		<path fill="#647248" d="M44.986,122.559c1.85,1.354,2.372,3.783,0.949,5.727c-1.396,1.904-3.823,2.115-5.636,0.787l-2.793-2.047
			l4.742-6.473L44.986,122.559z M40.849,128.322c1.331,0.977,3.137,0.879,4.255-0.646c1.138-1.555,0.721-3.352-0.666-4.367
			l-1.933-1.416l-3.645,4.975L40.849,128.322z"/>
		<path fill="#647248" d="M64.146,131.896l-0.291,0.881l-2.534-0.836l-2.22,6.734l-0.946-0.312l2.219-6.734l-2.523-0.83l0.29-0.883
			L64.146,131.896z"/>
		<path fill="#647248" d="M74.314,133.674l-1.111,7.945l-0.987-0.137l0.509-3.646l-4.268-0.596l-0.51,3.645l-0.988-0.139
			l1.111-7.945l0.987,0.137l-0.471,3.373l4.269,0.596l0.471-3.371L74.314,133.674z"/>
		<path fill="#647248" d="M84.887,140.721l0.038,0.928l-5.446,0.225l-0.332-8.012l5.379-0.221l0.039,0.926l-4.383,0.182l0.1,2.414
			l3.523-0.145l0.038,0.902l-3.524,0.146l0.117,2.838L84.887,140.721z"/>
		<path fill="#647248" d="M104.871,135.492c-0.186,0.584-0.788,1.717-2.247,2.266c-2.155,0.809-4.511-0.18-5.358-2.443
			c-0.852-2.264,0.271-4.557,2.426-5.367c1.559-0.547,3.061-0.229,4.148,0.684l-0.852,0.602c-0.807-0.615-1.924-0.758-2.954-0.371
			c-1.685,0.633-2.474,2.312-1.806,4.092c0.674,1.791,2.416,2.521,4.101,1.889c1.448-0.543,2.069-1.758,2.116-2.51l-0.325-0.869
			l-2.272,0.855l-0.295-0.783l3.078-1.156l1.471,3.914l-0.814,0.309L104.871,135.492z"/>
		<path fill="#647248" d="M115.391,131.137l-3.146-1.57c-0.082,0.062-0.189,0.129-0.288,0.188l-1.263,0.771l1.547,2.533l-0.852,0.52
			l-4.177-6.848l2.112-1.289c1.613-0.984,3.084-0.752,3.895,0.578c0.598,0.977,0.508,1.998-0.217,2.855l3.346,1.678L115.391,131.137
			z M111.557,128.9c1.064-0.65,1.272-1.543,0.783-2.344c-0.513-0.842-1.426-0.996-2.443-0.375l-1.35,0.822l1.658,2.719
			L111.557,128.9z"/>
		<path fill="#647248" d="M123.846,121.912l-3.354,3.025l0.581,2.1l-0.817,0.736l-2.393-8.646l0.477-0.43l8.354,3.273l-0.817,0.736
			L123.846,121.912z M122.884,121.529l-3.579-1.402l-0.222-0.125l0.103,0.232l1.024,3.705L122.884,121.529z"/>
		<path fill="#647248" d="M130.04,118.055l-6.206-5.096l0.633-0.771l6.206,5.096L130.04,118.055z"/>
		<path fill="#647248" d="M130.927,102.477l6.899,4.09l-0.479,0.809l-7.512,0.85l-0.299,0.01l0.297,0.15l5.116,3.031l-0.509,0.859
			l-6.899-4.092l0.474-0.799l7.486-0.877l0.303,0.008l-0.297-0.15l-5.097-3.021L130.927,102.477z"/>
	</g>
	<g>
		<path fill="#647248" d="M19.697,70.012l0.641,0.041l-0.245,3.767l-5.539-0.36l0.241-3.72l0.642,0.042l-0.198,3.031l1.671,0.108
			l0.159-2.438l0.625,0.041l-0.159,2.438l1.963,0.128L19.697,70.012z"/>
		<path fill="#647248" d="M17.858,60.958c-0.679-0.021-1.187,0.437-1.331,1.096c-0.153,0.69,0.045,1.263,0.604,1.386
			c0.573,0.127,0.903-0.557,1.289-1.235c0.402-0.716,0.921-1.667,2.022-1.423c0.915,0.202,1.414,1.142,1.15,2.336
			c-0.257,1.162-1.102,1.748-2.065,1.73l-0.033-0.699c0.651,0.071,1.304-0.346,1.492-1.198c0.172-0.775-0.123-1.353-0.673-1.474
			c-0.744-0.165-1.16,0.76-1.567,1.459c-0.344,0.598-0.822,1.403-1.745,1.199c-0.845-0.188-1.302-1.134-1.06-2.227
			c0.219-0.992,0.97-1.632,1.889-1.632L17.858,60.958z"/>
		<path fill="#647248" d="M19.648,50.533l0.6,0.229l-0.661,1.727l4.585,1.756l-0.246,0.644l-4.585-1.756l-0.659,1.719l-0.6-0.229
			L19.648,50.533z"/>
		<path fill="#647248" d="M23.491,42.971c0.806-1.366,2.441-1.893,3.876-1.046c1.406,0.83,1.719,2.487,0.929,3.825l-1.216,2.062
			l-4.781-2.82L23.491,42.971z M27.743,45.424c0.58-0.983,0.389-2.22-0.738-2.885c-1.147-0.677-2.355-0.267-2.961,0.758
			l-0.842,1.428l3.674,2.168L27.743,45.424z"/>
	</g>
	<g>
		<path fill="#647248" d="M129.557,43.202l1.582,2.528l-0.546,0.341l-2.06-3.295l0.545-0.341l3.078,1.05
			c0.432,0.15,0.984,0.152,1.381-0.097c0.551-0.344,0.693-1.013,0.316-1.618c-0.399-0.639-1.017-0.787-1.623-0.604l-0.198-0.634
			c0.987-0.29,1.819,0.069,2.354,0.923c0.592,0.949,0.375,2.009-0.473,2.54c-0.753,0.471-1.544,0.281-2.262,0.001L129.557,43.202z"
			/>
		<path fill="#647248" d="M137.577,54.389c-1.539,0.643-3.065,0.159-3.677-1.308c-0.609-1.466,0.121-2.89,1.662-3.53
			c1.539-0.643,3.064-0.159,3.676,1.308C139.85,52.325,139.117,53.748,137.577,54.389z M135.837,50.211
			c-1.209,0.504-1.776,1.496-1.312,2.611c0.464,1.113,1.567,1.41,2.777,0.906c1.209-0.503,1.776-1.496,1.312-2.611
			C138.15,50.004,137.047,49.707,135.837,50.211z"/>
		<path fill="#647248" d="M142.424,61.068l-5.393,1.347l-0.168-0.671l4.176-1.043l0.236-0.041l-0.18-0.088l-1.172-0.729l0.293-0.531
			l2.092,1.295L142.424,61.068z"/>
		<path fill="#647248" d="M139.857,71.881l-0.063-0.632l-1.366,0.138l-0.066-0.663l1.367-0.139l-0.303-2.985l0.607-0.062
			l3.867,2.723l0.057,0.568l-3.555,0.359l0.063,0.632L139.857,71.881z M140.336,70.524l2.426-0.244l0.143-0.007l-0.151-0.089
			l-2.64-1.871L140.336,70.524z"/>
	</g>
	<g>
		<path fill="#647248" d="M60.855,19.502c-0.18,0.586-0.773,1.723-2.229,2.283c-2.15,0.828-4.513-0.141-5.383-2.398
			c-0.869-2.256,0.233-4.561,2.384-5.389c1.553-0.561,3.058-0.256,4.155,0.647l-0.847,0.608c-0.812-0.608-1.932-0.742-2.959-0.347
			c-1.679,0.647-2.454,2.333-1.771,4.109c0.688,1.786,2.438,2.501,4.116,1.854c1.444-0.556,2.057-1.774,2.098-2.527l-0.334-0.866
			l-2.268,0.873l-0.301-0.781l3.07-1.182l1.504,3.904l-0.813,0.312L60.855,19.502z"/>
		<path fill="#647248" d="M71.005,18.371L68.64,15.77c-0.1,0.029-0.224,0.051-0.337,0.072l-1.454,0.262l0.525,2.92l-0.981,0.177
			l-1.42-7.894l2.436-0.438c1.86-0.335,3.147,0.411,3.423,1.945c0.203,1.128-0.248,2.047-1.234,2.585l2.514,2.772L71.005,18.371z
			 M68.238,14.899c1.229-0.222,1.744-0.979,1.578-1.902c-0.175-0.97-0.97-1.443-2.143-1.232l-1.556,0.279l0.563,3.135L68.238,14.899
			z"/>
		<path fill="#647248" d="M81.872,16.846l0.015,0.929l-5.454,0.087l-0.129-8.021l5.385-0.086l0.017,0.928l-4.39,0.07l0.039,2.418
			l3.529-0.057l0.015,0.906l-3.528,0.057l0.045,2.842L81.872,16.846z"/>
		<path fill="#647248" d="M91.91,18.164l-0.152,0.916l-5.382-0.893l1.313-7.916l5.313,0.883l-0.151,0.916l-4.33-0.719l-0.396,2.385
			l3.482,0.578l-0.148,0.894l-3.482-0.577l-0.465,2.803L91.91,18.164z"/>
		<path fill="#647248" d="M105.195,14.976l-2.766,7.53l-0.883-0.324l-2.201-7.231l-0.063-0.292l-0.095,0.32l-2.051,5.583
			l-0.936-0.345l2.766-7.529l0.872,0.32l2.226,7.203l0.049,0.299l0.094-0.32l2.043-5.562L105.195,14.976z"/>
	</g>
	<path fill="#647248" d="M78.5,154.117c-43.18,0-78.309-35.129-78.309-78.309C0.191,32.629,35.32-2.5,78.5-2.5
		c43.18,0,78.309,35.129,78.309,78.308C156.809,118.988,121.68,154.117,78.5,154.117z M78.5-1.3
		C35.982-1.3,1.391,33.291,1.391,75.808c0,42.518,34.592,77.11,77.109,77.11c42.518,0,77.109-34.592,77.109-77.11
		S121.018-1.3,78.5-1.3z"/>
</g>
</svg>
