<?xml version="1.0" encoding="utf-8"?>
<!-- Generator: Adobe Illustrator 16.0.0, SVG Export Plug-In . SVG Version: 6.00 Build 0)  -->
<!DOCTYPE svg PUBLIC "-//W3C//DTD SVG 1.1//EN" "http://www.w3.org/Graphics/SVG/1.1/DTD/svg11.dtd">
<svg version="1.1" id="Layer_1" xmlns="http://www.w3.org/2000/svg" xmlns:xlink="http://www.w3.org/1999/xlink" x="0px" y="0px"
	 width="31px" height="31px" viewBox="0 0 31 31" enable-background="new 0 0 31 31" xml:space="preserve">
<circle fill="#FFFFFF" cx="15.5" cy="15.5" r="15"/>
<path fill="#2C2C2C" d="M18.995,15.498c0,1.932-1.564,3.496-3.495,3.496c-1.93,0-3.494-1.564-3.494-3.496
	c0-0.229,0.022-0.453,0.064-0.671h-2.35v4.646c0,0.998,0.808,1.807,1.806,1.807h7.947c0.998,0,1.807-0.809,1.807-1.807v-4.646h-2.35
	C18.973,15.045,18.995,15.27,18.995,15.498z M19.474,9.719h-7.947c-0.998,0-1.806,0.809-1.806,1.807v1.957h2.925
	c0.633-0.894,1.675-1.479,2.854-1.479c1.179,0,2.22,0.585,2.854,1.479h2.927v-1.957C21.28,10.527,20.472,9.719,19.474,9.719z
	 M20.356,11.951c0,0.178-0.145,0.322-0.322,0.322h-0.968c-0.177,0-0.322-0.145-0.322-0.322v-0.968c0-0.178,0.146-0.323,0.322-0.323
	h0.968c0.178,0,0.322,0.146,0.322,0.323V11.951z M17.65,15.498c0-1.187-0.963-2.149-2.15-2.149s-2.15,0.963-2.15,2.149
	c0,1.189,0.963,2.153,2.15,2.153S17.65,16.688,17.65,15.498z"/>
</svg>
