<?xml version="1.0" encoding="utf-8"?>
<!-- Generator: Adobe Illustrator 16.0.0, SVG Export Plug-In . SVG Version: 6.00 Build 0)  -->
<!DOCTYPE svg PUBLIC "-//W3C//DTD SVG 1.1//EN" "http://www.w3.org/Graphics/SVG/1.1/DTD/svg11.dtd">
<svg version="1.1" id="Layer_1" xmlns="http://www.w3.org/2000/svg" xmlns:xlink="http://www.w3.org/1999/xlink" x="0px" y="0px"
	 width="465px" height="354px" viewBox="0 0 465 354" enable-background="new 0 0 465 354" xml:space="preserve">
<g>
	<path fill="#FFFFFF" d="M104.276,97.573c-2.33,3.217-9.653,11.424-23.328,11.424c-16.174,0-29.205-12.309-29.205-29.285
		c0-16.978,13.031-29.286,29.205-29.286c11.986,0.402,20.753,6.115,25.582,14.643l-3.137,0.804
		c-4.424-7.724-12.791-12.469-22.445-12.469c-14.563,0-25.99,10.538-25.99,26.309c0,15.526,11.427,26.31,25.99,26.31
		c11.986,0,20.916-7.486,23.328-12.633V83.091H85.933v-2.977h21.242v27.917h-2.898V97.573z"/>
	<path fill="#FFFFFF" d="M177.937,107.872l-14.238-22.609c-1.37,0.162-2.737,0.243-4.267,0.243h-12.067v22.366h-3.215V51.553h15.282
		c12.712,0,20.357,6.436,20.357,16.976c0,8.286-4.669,13.919-12.712,16.091l14.559,23.252H177.937z M159.432,82.528
		c11.188,0,17.139-5.389,17.139-13.999c0-9.172-6.599-13.998-17.139-13.998h-12.067v27.997H159.432z"/>
	<path fill="#FFFFFF" d="M255.383,104.894v2.979h-36.448V51.553h35.963v2.978h-32.744v21.48h26.628v2.977h-26.628v25.906H255.383z"
		/>
	<path fill="#FFFFFF" d="M328.799,104.894v2.979h-36.443V51.553h35.964v2.978h-32.748v21.48h26.634v2.977h-26.634v25.906H328.799z"
		/>
	<path fill="#FFFFFF" d="M413.25,51.553v56.319h-2.976l-37.09-49.48l-1.127-1.611l0.163,2.415v48.676h-3.222V51.553h2.977
		l37.172,49.319l1.044,1.77l-0.157-2.496V51.553H413.25z"/>
	<path fill="#FFFFFF" d="M107.233,178.251H81.3v26.484h-3.215v-26.484H52.151v-2.814h26.012v-26.834h3.219v26.834h25.852V178.251z"
		/>
	<path fill="#FFFFFF" d="M257.85,148.603v2.977h-19.713v53.34h-3.216v-53.34H215.29v-2.977H257.85z"/>
	<path fill="#FFFFFF" d="M333.893,148.603v56.316h-3.215v-28.158h-35.562v28.158h-3.221v-56.316h3.221v25.182h35.562v-25.182
		H333.893z"/>
	<path fill="#FFFFFF" d="M413.229,201.942v2.977h-36.443v-56.316h35.962v2.977h-32.746v21.481h26.633v2.976h-26.633v25.906H413.229z
		"/>
	<path fill="#FFFFFF" d="M104.135,291.802c-2.331,3.221-9.652,11.426-23.331,11.426c-16.169,0-29.206-12.309-29.206-29.281
		c0-16.979,13.037-29.289,29.206-29.289c11.986,0.402,20.757,6.115,25.583,14.641l-3.134,0.805
		c-4.426-7.723-12.794-12.47-22.449-12.47c-14.56,0-25.984,10.538-25.984,26.313c0,15.525,11.425,26.305,25.984,26.305
		c11.986,0,20.92-7.482,23.331-12.635V277.32H85.794v-2.976h21.237v27.922h-2.896V291.802z"/>
	<path fill="#FFFFFF" d="M177.937,302.101l-14.238-22.605c-1.37,0.16-2.737,0.238-4.267,0.238h-12.067v22.367h-3.215v-56.317h15.282
		c12.712,0,20.357,6.437,20.357,16.976c0,8.287-4.669,13.918-12.712,16.096l14.559,23.246H177.937z M159.432,276.758
		c11.188,0,17.139-5.39,17.139-13.999c0-9.172-6.599-13.998-17.139-13.998h-12.067v27.997H159.432z"/>
	<path fill="#FFFFFF" d="M256.992,284.642h-34.919l-9.01,17.459h-3.379l29.124-56.317h1.447l29.126,56.317h-3.38L256.992,284.642z
		 M255.463,281.665l-15.446-29.928l-0.484-1.287l-0.479,1.287l-15.448,29.928H255.463z"/>
	<path fill="#FFFFFF" d="M413.256,245.783v56.317h-2.976l-37.09-49.479l-1.127-1.61l0.163,2.417v48.672h-3.222v-56.317h2.977
		l37.173,49.321l1.043,1.768l-0.157-2.493v-48.596H413.256z"/>
	<path fill="#FFFFFF" d="M461.832,2.982v347.689H3.17V2.982H461.832 M464.808,0.001h-2.976H3.17H0.192v2.981v347.689v2.982H3.17
		h458.662h2.976v-2.982V2.982V0.001L464.808,0.001z"/>
	<polygon fill="#FFFFFF" points="327.76,249.001 327.76,245.783 314.507,245.783 311.286,245.783 298.027,245.783 298.027,249.001 
		311.286,249.001 311.286,298.884 298.027,298.884 298.027,302.101 311.286,302.101 314.507,302.101 327.76,302.101 327.76,298.884 
		314.507,298.884 314.507,249.001 	"/>
</g>
</svg>
