<?xml version="1.0" encoding="utf-8"?>
<!-- Generator: Adobe Illustrator 16.0.0, SVG Export Plug-In . SVG Version: 6.00 Build 0)  -->
<!DOCTYPE svg PUBLIC "-//W3C//DTD SVG 1.1//EN" "http://www.w3.org/Graphics/SVG/1.1/DTD/svg11.dtd">
<svg version="1.1" id="Layer_1" xmlns="http://www.w3.org/2000/svg" xmlns:xlink="http://www.w3.org/1999/xlink" x="0px" y="0px"
	 width="91px" height="76px" viewBox="0 0 91 76" enable-background="new 0 0 91 76" xml:space="preserve">
<g>
	<polygon fill="#2C2C2C" points="49.892,3.074 48.559,5.005 45.937,8.798 45.494,0.5 44.987,0.5 44.66,8.771 40.729,3.074 
		40.229,3.179 45.309,12.78 50.386,3.179 	"/>
	<path fill="#2C2C2C" d="M35.602,34.353c0,8.063,3.318,15.392,8.714,19.451V14.368C39.168,18.489,35.602,26.511,35.602,34.353z"/>
	<path fill="#2C2C2C" d="M55.014,34.353c0,8.063-3.323,15.392-8.715,19.451V14.368C51.447,18.489,55.014,26.511,55.014,34.353z"/>
	<path fill="#647248" d="M90.755,64.815c-1.901-2.374-4.65-4.388-7.812-5.889l-5.895,5.893L90.755,64.815z"/>
	<path fill="#647248" d="M74.193,64.819l6.75-6.753c-3.126-1.2-6.536-1.92-9.942-1.948l-8.702,8.697L74.193,64.819z"/>
	<path fill="#647248" d="M51.317,64.815l8.124,0.004l8.576-8.574C61.062,56.903,54.912,60.042,51.317,64.815z"/>
	<path fill="#647248" d="M90.755,66.799H77.088l5.883,5.882C86.115,71.175,88.861,69.164,90.755,66.799z"/>
	<path fill="#647248" d="M59.481,66.799h-8.164c3.6,4.784,9.771,7.919,16.739,8.575L59.481,66.799z"/>
	<path fill="#647248" d="M62.339,66.799l8.7,8.701c3.403-0.036,6.812-0.756,9.929-1.963l-6.735-6.738H62.339z"/>
	<polygon fill="#647248" points="75.068,64.78 75.029,64.819 75.104,64.815 	"/>
	<polygon fill="#647248" points="54.251,64.819 54.331,64.815 54.292,64.777 	"/>
	<path fill="#647248" d="M0.244,64.815c1.9-2.371,4.653-4.383,7.814-5.889l5.894,5.893L0.244,64.815z"/>
	<path fill="#647248" d="M16.809,64.819l-6.748-6.753c3.121-1.198,6.533-1.92,9.936-1.948l8.705,8.701H16.809z"/>
	<path fill="#647248" d="M39.682,64.815l-8.123,0.004l-8.574-8.571C29.937,56.906,36.088,60.048,39.682,64.815z"/>
	<path fill="#647248" d="M0.244,66.799h13.67L8.03,72.681C4.882,71.178,2.139,69.164,0.244,66.799z"/>
	<path fill="#647248" d="M31.521,66.799h8.161c-3.599,4.784-9.77,7.923-16.738,8.575L31.521,66.799z"/>
	<path fill="#647248" d="M28.662,66.799l-8.7,8.701c-3.402-0.036-6.812-0.756-9.931-1.96l6.738-6.741H28.662z"/>
	<polygon fill="#647248" points="15.932,64.78 15.971,64.819 15.895,64.819 	"/>
	<polygon fill="#647248" points="30.721,64.819 30.644,64.819 30.681,64.78 	"/>
</g>
</svg>
