<?xml version="1.0" encoding="utf-8"?>
<!-- Generator: Adobe Illustrator 16.0.0, SVG Export Plug-In . SVG Version: 6.00 Build 0)  -->
<!DOCTYPE svg PUBLIC "-//W3C//DTD SVG 1.1//EN" "http://www.w3.org/Graphics/SVG/1.1/DTD/svg11.dtd">
<svg version="1.1" id="Layer_1" xmlns="http://www.w3.org/2000/svg" xmlns:xlink="http://www.w3.org/1999/xlink" x="0px" y="0px"
	 width="31px" height="31px" viewBox="0 0 31 31" enable-background="new 0 0 31 31" xml:space="preserve">
<circle fill="#FFFFFF" cx="15.5" cy="15.5" r="15"/>
<path fill="#2C2C2C" d="M22.612,11.087c-0.524,0.233-1.087,0.39-1.677,0.46c0.603-0.361,1.064-0.934,1.283-1.615
	c-0.564,0.335-1.188,0.578-1.854,0.709c-0.532-0.566-1.289-0.922-2.13-0.922c-1.612,0-2.918,1.307-2.918,2.918
	c0,0.23,0.026,0.453,0.075,0.665c-2.425-0.12-4.577-1.284-6.015-3.048c-0.251,0.432-0.396,0.932-0.396,1.466
	c0,1.013,0.515,1.907,1.298,2.429c-0.478-0.015-0.928-0.145-1.321-0.364c0,0.013,0,0.024,0,0.036c0,1.415,1.006,2.596,2.341,2.863
	c-0.245,0.065-0.503,0.102-0.769,0.102c-0.188,0-0.371-0.018-0.549-0.053c0.371,1.16,1.449,2.004,2.726,2.027
	c-1,0.783-2.257,1.248-3.625,1.248c-0.235,0-0.467-0.013-0.695-0.041c1.291,0.828,2.824,1.312,4.474,1.312
	c5.367,0,8.303-4.447,8.303-8.304c0-0.126-0.002-0.251-0.009-0.377C21.727,12.188,22.22,11.673,22.612,11.087z"/>
</svg>
